<?xml version="1.0" standalone="no"?>
<!DOCTYPE svg PUBLIC "-//W3C//DTD SVG 20010904//EN"
 "http://www.w3.org/TR/2001/REC-SVG-20010904/DTD/svg10.dtd">
<svg version="1.0" xmlns="http://www.w3.org/2000/svg"
 width="70.000000pt" height="70.000000pt" viewBox="0 0 70.000000 70.000000"
 preserveAspectRatio="xMidYMid meet">
<metadata>
Created by potrace 1.14, written by Peter Selinger 2001-2017
</metadata>
<g transform="translate(0.000000,70.000000) scale(0.100000,-0.100000)"
fill="#000000" stroke="none">
<path d="M354 658 c3 -14 9 -34 12 -43 6 -15 1 -16 -37 -10 -57 8 -81 -9 -85
-60 -3 -38 27 -105 47 -105 11 0 12 24 2 34 -11 11 -15 56 -4 56 5 0 13 -4 16
-10 10 -16 68 -3 87 20 27 34 23 75 -13 112 l-31 33 6 -27z"/>
<path d="M315 431 c-9 -19 -26 -32 -44 -36 -72 -16 -126 -77 -156 -177 -7 -24
-18 -43 -26 -43 -32 0 -52 -22 -45 -49 l6 -26 295 0 295 0 6 26 c8 31 -5 45
-40 47 -14 1 -28 9 -30 17 -2 8 -7 29 -11 45 -12 55 -54 114 -98 137 -23 12
-44 23 -47 23 -23 4 -49 18 -46 23 6 9 -16 36 -31 39 -7 2 -19 -10 -28 -26z"/>
<path d="M80 73 c0 -9 3 -13 7 -10 3 4 12 2 20 -4 9 -8 13 -8 13 0 0 7 8 8 25
1 15 -6 27 -6 30 0 3 6 15 6 29 0 15 -5 27 -5 34 2 6 6 12 6 16 -1 5 -7 15 -7
31 -1 14 5 25 6 25 2 0 -4 11 -7 25 -7 14 0 25 4 25 8 0 4 8 3 18 -2 11 -6 24
-6 35 0 9 6 17 6 17 2 0 -4 11 -8 25 -8 14 0 25 4 25 8 0 4 9 3 19 -3 14 -7
22 -7 26 0 4 6 11 7 18 3 29 -18 81 0 60 21 -4 3 -123 6 -265 6 -234 0 -258
-2 -258 -17z"/>
</g>
</svg>
